<?xml version="1.0" standalone="no"?>
<!DOCTYPE svg PUBLIC "-//W3C//DTD SVG 20010904//EN"
 "http://www.w3.org/TR/2001/REC-SVG-20010904/DTD/svg10.dtd">
<svg version="1.0" xmlns="http://www.w3.org/2000/svg"
 width="1912.000000pt" height="1912.000000pt" viewBox="0 0 1912.000000 1912.000000"
 preserveAspectRatio="xMidYMid meet">
<metadata>
Created by potrace 1.14, written by Peter Selinger 2001-2017
</metadata>
<g transform="translate(0.000000,1912.000000) scale(0.100000,-0.100000)"
fill="#000000" stroke="none">
<path d="M7599 14181 c-191 -41 -313 -92 -468 -195 -272 -182 -475 -454 -563
-756 -39 -135 -48 -240 -48 -578 l0 -322 638 2 637 3 5 260 c6 294 8 305 77
325 27 8 652 10 2145 8 l2108 -3 32 -33 33 -32 0 -785 0 -785 -33 -32 -32 -33
-2233 -5 c-2231 -6 -2232 -6 -2317 -27 -132 -33 -206 -60 -320 -119 -319 -163
-584 -475 -684 -804 -57 -187 -56 -163 -56 -1687 l0 -1403 3480 0 3480 0 -2
638 -3 637 -2808 5 -2809 5 -29 33 -29 32 0 665 0 665 29 32 29 33 2224 5
2223 6 97 22 c584 134 1012 613 1069 1195 7 74 9 411 6 1002 -3 880 -4 891
-26 990 -113 504 -485 889 -986 1023 l-100 27 -2340 2 c-2228 2 -2344 1 -2426
-16z"/>
<path d="M10 8890 l0 -3950 640 0 640 0 0 1120 0 1119 1658 4 c1825 3 1686 -1
1882 63 428 142 782 522 889 957 41 163 42 247 38 1887 -4 1723 0 1625 -62
1814 -135 413 -493 762 -903 882 -194 56 -87 54 -2529 54 l-2253 0 0 -3950z
m4410 2655 c64 -33 60 70 60 -1535 0 -1605 4 -1502 -60 -1535 -26 -13 -209
-15 -1544 -15 l-1516 0 -32 29 -33 29 -3 1485 -2 1484 21 27 c12 15 31 32 43
36 11 5 700 9 1529 9 1329 1 1511 -1 1537 -14z"/>
<path d="M15715 12824 c-274 -42 -527 -174 -741 -388 -131 -132 -206 -236
-279 -388 -59 -124 -97 -254 -114 -393 -8 -63 -11 -753 -11 -2282 l0 -2193
640 0 640 0 0 2145 c0 1899 2 2149 15 2175 33 64 -80 60 1635 60 l1560 0 0
640 0 640 -1627 -1 c-1331 -1 -1644 -3 -1718 -15z"/>
</g>
</svg>
